<svg xmlns="http://www.w3.org/2000/svg" viewBox="0 0 48 48" fill="none">
  <rect width="48" height="48" rx="8" fill="#6DB33F"/>
  <g transform="translate(10,8)" fill="#fff">
    <path d="M14 17.5s-1.5.9.9 1.2c2.9.4 4.4.3 7.6-.3 0 0 .8.5 2 1-7.2 3-16.3-.2-10.5-1.9z"/>
    <path d="M13 14.8s-1.7 1.2.8 1.5c3.2.3 5.5.3 9.7-.5 0 0 .6.6 1.5.9-8.7 2.5-18.4.2-12-1.9z"/>
    <path d="M18.3 10.2c1.7 2-0.5 3.8-0.5 3.8s4.4-2.3 2.4-5.1c-1.9-2.6-3.4-3.9 4.5-8.4 0 0-12.4 3.1-6.4 9.7z"/>
    <path d="M25.4 19.7s1.1.9-1.2 1.6c-4.3 1.3-17.9 1.7-21.7 0-1.3-.6 1.2-1.4 2.1-1.5.8-.2 1.3-.1 1.3-.1-1.5-1-9.5 3-4.1 4.3 14.8 3.5 27-1.6 23.6-4.3z"/>
    <path d="M14.5 24.8s-6.7 1.6-2.4 2.2c1.8.2 5.5.2 8.9-.1 2.8-.2 5.6-.8 5.6-.8s-1 .4-1.7.9c-6.7 1.8-19.7 1-16-0.9 3.1-1.6 5.6-1.3 5.6-1.3z"/>
    <path d="M23.2 21.5c6.8-3.5 3.6-7 1.5-6.5-.5.1-.8.2-.8.2s.2-.3.6-.5c4.5-1.6 8 4.7-1.4 7.2 0 0 .1-.1.1-.4z"/>
  </g>
</svg>
