<svg xmlns="http://www.w3.org/2000/svg" viewBox="0 0 48 48" fill="none">
  <rect width="48" height="48" rx="8" fill="#2496ED"/>
  <g fill="#fff">
    <rect x="8" y="22" width="5" height="4" rx="0.5"/>
    <rect x="14" y="22" width="5" height="4" rx="0.5"/>
    <rect x="20" y="22" width="5" height="4" rx="0.5"/>
    <rect x="26" y="22" width="5" height="4" rx="0.5"/>
    <rect x="14" y="17" width="5" height="4" rx="0.5"/>
    <rect x="20" y="17" width="5" height="4" rx="0.5"/>
    <rect x="26" y="17" width="5" height="4" rx="0.5"/>
    <rect x="20" y="12" width="5" height="4" rx="0.5"/>
    <path d="M40 24c-.8-1.2-2.5-1.6-3.5-1.6-.2 0-.3 0-.5 0-.4-1.5-1.6-2.3-2.8-2.8l-.5-.3-.3.5c-.4.7-.6 1.5-.5 2.3.1.5.3 1 .6 1.4-.5.3-1 .4-1.5.5H6.5c-.5 0-.9.4-.9.9 0 2.2.4 4.3 1.2 6.1 1 2 2.5 3.4 4.5 4.2 2.3.9 5 1.2 7.5 1 2-.2 4-.7 5.8-1.5 1.5-.7 2.8-1.7 3.9-3h.1c1.6-1.9 2.5-4 3.1-6.3h.3c1.3 0 2.6-.5 3.4-1.2.5-.4.8-.9 1.1-1.5l.2-.4-.3-.3z" opacity=".9"/>
  </g>
</svg>
