<svg xmlns="http://www.w3.org/2000/svg" viewBox="0 0 48 48" fill="none">
  <rect width="48" height="48" rx="8" fill="#3776AB"/>
  <g transform="translate(8,6)">
    <path d="M15.9 2c-5 0-4.7 2.2-4.7 2.2l0 2.2h4.8v.7H7.5S4 6.6 4 11.8s3.1 5 3.1 5h1.8v-2.4s-.1-3.1 3-3.1h5.2s3 0 3-2.9V4.8S20.5 2 15.9 2zm-2.9 1.6a1 1 0 1 1 0 1.9 1 1 0 0 1 0-1.9z" fill="#fff"/>
    <path d="M16.1 34c5 0 4.7-2.2 4.7-2.2l0-2.2h-4.8v-.7h8.5S28 29.4 28 24.2s-3.1-5-3.1-5h-1.8v2.4s.1 3.1-3 3.1h-5.2s-3 0-3 2.9v3.6S11.5 34 16.1 34zm2.9-1.6a1 1 0 1 1 0-1.9 1 1 0 0 1 0 1.9z" fill="#FFD43B"/>
  </g>
</svg>
